<svg xmlns="http://www.w3.org/2000/svg" width="123.436" height="123.436" viewBox="0 0 123.436 123.436">
  <g id="airbus-logo-vector-1" style="mix-blend-mode: normal;isolation: isolate">
    <path id="Path_113899" data-name="Path 113899" d="M0,0H123.436V123.436H0Z" fill="rgba(255,255,255,0)" fill-rule="evenodd"/>
    <path id="Path_113900" data-name="Path 113900" d="M22.326,90.8a9.039,9.039,0,0,0-8.98-8.878A8.886,8.886,0,0,0,4.569,90.9H2.834A9.866,9.866,0,0,1,12.529,81a9.887,9.887,0,0,1,9.9,9.8h-.1Z" transform="translate(-1.019 -29.13)" fill="#313f94" fill-rule="evenodd"/>
    <path id="Path_113901" data-name="Path 113901" d="M24.173,91.873a7.1,7.1,0,0,0-7.143-7.143,6.847,6.847,0,0,0-6.837,7.143H8.253a8.255,8.255,0,0,1,8.164-8.164c4.388,0,7.96,4.082,8.062,8.062Z" transform="translate(-2.968 -30.104)" fill="#313f94" fill-rule="evenodd"/>
    <path id="Path_113902" data-name="Path 113902" d="M26.338,92.8a5.338,5.338,0,0,0-5.409-5.2,5.1,5.1,0,0,0-5.1,5.307H13.99a6.187,6.187,0,0,1,6.123-6.327A6.407,6.407,0,0,1,26.44,92.8h-.1Z" transform="translate(-5.031 -31.136)" fill="#313f94" fill-rule="evenodd"/>
    <path id="Path_113903" data-name="Path 113903" d="M3.038,96.4a8.878,8.878,0,1,0,17.756-.1h1.735a9.887,9.887,0,0,1-9.8,9.9,9.954,9.954,0,0,1-9.9-9.8h.2Z" transform="translate(-1.019 -34.632)" fill="#313f94" fill-rule="evenodd"/>
    <path id="Path_113904" data-name="Path 113904" d="M3.039,96.3a7.1,7.1,0,0,0,7.143,7.143A6.785,6.785,0,0,0,17.019,96.3h1.939a8.167,8.167,0,0,1-8.062,8.163A8.354,8.354,0,0,1,2.835,96.4l.2-.1Z" transform="translate(-1.02 -34.632)" fill="#313f94" fill-rule="evenodd"/>
    <path id="Path_113905" data-name="Path 113905" d="M2.994,91.587a5.476,5.476,0,0,0,5.409,5.2,5.1,5.1,0,0,0,5.1-5.307h1.837a6.175,6.175,0,1,1-12.348.1Zm34.8,2.246H34.527l2.654-5.715.612,5.715Zm-5.715,5.305L33,97.1h5.1l.307,2.041h5.1L40.65,83.321h-5.2l-8.47,15.817h5.1Zm13.776,0L48.61,83.321h5.2L51.059,99.138ZM61.264,87.2h2.552a2.251,2.251,0,0,1,1.632.409,1.113,1.113,0,0,1,.2,1.02,1.471,1.471,0,0,1-.714,1.123,2.55,2.55,0,0,1-1.735.409H60.754Zm-2.042,11.94.919-5.51h2.041a4.7,4.7,0,0,1,1.428.2,1.37,1.37,0,0,1,.613.714,2.47,2.47,0,0,1,0,1.224L64.121,97a10.186,10.186,0,0,0-.2,2.143h5.307v-.51c-.1,0-.307,0-.307-.1-.1-.1-.1-.307,0-.714l.409-2.45a2.777,2.777,0,0,0-2.041-3.673,5.135,5.135,0,0,0,1.326-.51,4.974,4.974,0,0,0,1.224-1.327,6.088,6.088,0,0,0,.816-2.042,3.811,3.811,0,0,0,0-1.53,3.4,3.4,0,0,0-.51-1.224,4.821,4.821,0,0,0-1.021-1.021,6.993,6.993,0,0,0-1.735-.51,19.1,19.1,0,0,0-2.755-.2H56.977L54.222,99.138h5ZM80.449,86.892c.714,0,1.224.1,1.428.1a1.049,1.049,0,0,1,.613.51,1.1,1.1,0,0,1,.2.816,1.73,1.73,0,0,1-.714,1.021,3.3,3.3,0,0,1-1.735.408H78.306l.51-2.857Zm-.816,12.246a13.179,13.179,0,0,0,2.551-.2,10.133,10.133,0,0,0,1.632-.51,5,5,0,0,0,1.327-.816,3.549,3.549,0,0,0,1.123-1.326,4.594,4.594,0,0,0,.714-1.837,4.266,4.266,0,0,0-.307-2.348,2.556,2.556,0,0,0-1.735-1.326A4.941,4.941,0,0,0,87.592,87.4a2.706,2.706,0,0,0-1.224-3.163c-.816-.613-2.143-.919-4.184-.919H74.428L71.673,99.138h7.96Zm.306-6.632a3.609,3.609,0,0,1,1.938.408,1.092,1.092,0,0,1,.307,1.123,1.947,1.947,0,0,1-.714,1.122,4.4,4.4,0,0,1-2.042.409H77.286l.51-3.062h2.143Zm11.94-9.185h5.1l-1.735,9.8a3.277,3.277,0,0,0,0,1.429,1.359,1.359,0,0,0,.714.815,2.813,2.813,0,0,0,1.326.307,2.663,2.663,0,0,0,1.837-.612,3.545,3.545,0,0,0,1.021-1.94l1.735-9.8h5.1l-1.634,9.286a13.293,13.293,0,0,1-.714,2.756A6.707,6.707,0,0,1,103.41,97.1a7.147,7.147,0,0,1-1.735,1.327,8.664,8.664,0,0,1-2.245.918,24.925,24.925,0,0,1-2.756.2,21.934,21.934,0,0,1-2.858-.2,4.905,4.905,0,0,1-1.938-.918A4.11,4.11,0,0,1,90.551,97.1a4.025,4.025,0,0,1-.51-2.04,8.282,8.282,0,0,1,.2-2.551l1.632-9.185ZM122.7,87.913h-5a1.552,1.552,0,0,0-.409-1.021,2.31,2.31,0,0,0-1.326-.306,2.694,2.694,0,0,0-1.428.306,1.177,1.177,0,0,0-.51.715c0,.306,0,.408.2.612a3.758,3.758,0,0,0,1.632.612l1.938.51a6.835,6.835,0,0,1,3.572,1.939,3.457,3.457,0,0,1,.613,2.857,6.1,6.1,0,0,1-1.021,2.348,7.007,7.007,0,0,1-1.735,1.735,10.17,10.17,0,0,1-2.348,1.021,13.878,13.878,0,0,1-2.959.307,9.413,9.413,0,0,1-2.959-.409,5.391,5.391,0,0,1-2.144-1.224,4.263,4.263,0,0,1-1.122-1.836,9.889,9.889,0,0,1-.1-1.837h5a1.313,1.313,0,0,0,.51,1.122,2.551,2.551,0,0,0,1.735.409,2.869,2.869,0,0,0,1.531-.307,1.175,1.175,0,0,0,.51-.714,1.1,1.1,0,0,0-.2-.816,3.76,3.76,0,0,0-1.634-.612l-1.735-.409A10.094,10.094,0,0,1,110.86,92a3.618,3.618,0,0,1-1.632-1.633,3.938,3.938,0,0,1-.2-2.245,6.106,6.106,0,0,1,1.019-2.347,5.606,5.606,0,0,1,1.837-1.633,5.5,5.5,0,0,1,2.245-.918,10.064,10.064,0,0,1,2.449-.306,10.533,10.533,0,0,1,2.654.306,6.2,6.2,0,0,1,1.836.816,3.2,3.2,0,0,1,.92,1.123,3.159,3.159,0,0,1,.51,1.224,6.25,6.25,0,0,1,.2,1.53Z" transform="translate(-1.077 -29.818)" fill="#313f94" fill-rule="evenodd"/>
  </g>
</svg>
